<svg xmlns="http://www.w3.org/2000/svg" width="617" height="316"><defs><radialGradient id="a" cx="549.29" cy="159.12" r="127" gradientUnits="userSpaceOnUse" gradientTransform="matrix(.65 -1.52 1.4 .60113 -26.35 869.29)"><stop offset="0" stop-color="red" stop-opacity=".27"/><stop offset="1" stop-color="red"/></radialGradient><radialGradient id="b" cx="492.86" cy="379.51" r="184.96" gradientUnits="userSpaceOnUse" gradientTransform="matrix(.945 .042 -.043 .988 43.598 -15.991)"><stop offset=".5"/><stop offset=".75"/><stop offset=".88" stop-opacity=".72"/><stop offset=".94" stop-opacity=".51"/><stop offset=".97" stop-opacity=".33"/><stop offset="1" stop-opacity="0"/></radialGradient><radialGradient id="c" cx="449.13" cy="345.23" r="184.96" gradientUnits="userSpaceOnUse" gradientTransform="matrix(1.06 0 0 1 -30.44 2)"><stop offset="0" stop-color="#fa4"/><stop offset=".5" stop-color="#c3791f"/><stop offset="1" stop-color="#935000"/></radialGradient></defs><g fill-opacity=".5" stroke-width="4"><circle cx="108" cy="108.5" r="100" fill="#0ff" stroke="#0ff"/><circle cx="157.3" cy="209.5" r="100" fill="#ff0" stroke="#ff0"/><circle cx="209.2" cy="109.5" r="100" fill="#f0f" stroke="#f0f"/></g><rect x="357.2" y="7.53" width="250" height="150" rx="41.429" fill="url(#a)" stroke="#000" stroke-width="4" stroke-dasharray="8 4"/><text x="405.11" y="106.51" font-family="Bitstream Vera Sans" font-size="72" font-style="oblique" font-weight="700" fill="#fff" fill-opacity=".5" stroke="#000" stroke-width="3" stroke-dasharray="6 3">SVG</text><path fill="url(#b)" transform="matrix(.4033 0 0 .4034 295.085 70.568)" d="M675.82 379.51a182.96 182.96 0 1 0-365.93 0 182.96 182.96 0 1 0 365.93 0"/><path fill="url(#c)" transform="matrix(.4033 0 0 .4034 285.922 53.972)" d="M675.82 379.51a182.96 182.96 0 1 0-365.93 0 182.96 182.96 0 1 0 365.93 0"/><path d="M465.475 135.798c.867.318 2.234.85 3.279 1.565 1.048.714 1.762 1.565 1.815 2.533.129 2.219.762 4.127-1.827 8.157-2.59 4.03-8.53 10.028-21.601 19.452-24.545 17.693-30.268 55.133-31.425 65.762l1.254 3.13s3.275-47.512 31.115-67.581c13.147-9.48 19.209-15.539 22.008-19.892 2.795-4.356 2.202-7.156 2.089-9.129-.093-1.686-1.27-2.9-2.52-3.755-.517-.355-1.066-.634-1.59-.888l-2.597.646M490 133.454c-3.828 4.776-12.543 19.153-17.69 55.96-6.355 45.455-5.827 84.746-5.742 89.187l1.621.367s-1.008-41.207 5.723-89.34c5.493-39.292 15.043-52.612 18.056-56l-1.968-.174m19.225 5.486c-3.892.073-7.933 1.166-10.776 4.55-3.723 4.43-3.65 9.218-2.206 13.426 1.443 4.203 4.186 7.963 5.835 10.766.9 1.53 3.424 5.124 6.643 10.614 3.218 5.49 7.094 12.824 10.598 21.618 7.01 17.592 12.507 41.022 8.155 67.291l1.867-1.416c3.908-25.954-1.584-49.073-8.521-66.48-3.545-8.891-7.465-16.293-10.712-21.832-3.25-5.543-5.86-9.282-6.642-10.618-1.722-2.924-4.364-6.587-5.699-10.472-1.335-3.889-1.44-7.854 1.916-11.852 3.287-3.913 8.538-4.373 13.12-3.78 4.58.59 8.347 2.175 8.347 2.175l-7.162-3.615c-.347-.056-.613-.117-.972-.161a25.319 25.319 0 0 0-3.791-.214"/><path d="M469.488 144.321c-13.644.424-23.779 3.567-30.917 7.036-2.194 1.065-4.09 2.206-5.731 3.271-1.843 1.84-3.952 4.151-6.747 7.62 0 0 3.928-4.945 13.184-9.443 9.255-4.498 23.782-8.48 44.879-6.301 42.205 4.353 59.962 26.866 73.074 47.044l-.944-4.288c-13.047-19.383-31.615-40.207-71.965-44.37-5.344-.552-10.288-.71-14.833-.569"/></svg>